<?xml version="1.0" standalone="no"?><!DOCTYPE svg PUBLIC "-//W3C//DTD SVG 1.1//EN" "http://www.w3.org/Graphics/SVG/1.1/DTD/svg11.dtd"><svg t="1572425023079" class="icon" viewBox="0 0 1024 1024" version="1.1" xmlns="http://www.w3.org/2000/svg" p-id="13385" xmlns:xlink="http://www.w3.org/1999/xlink" width="42" height="42"><defs><style type="text/css"></style></defs><path d="M302.8 421.1V350c0-11.2-0.1-22.4 0.7-33.6 0.2-2.6 0.5-5.3 0.8-7.9 0.2-1.5 0.8-6.3-0.1 0.6l0.6-3.9c0.8-5.6 2-11.1 3.2-16.6 2.4-10.4 5.6-20.7 9.4-30.7 0.6-1.6 4.1-9.8 1.1-3 1-2.3 2-4.6 3.1-6.9 2.3-5 4.8-9.8 7.5-14.6 5.1-9.2 10.9-17.9 17.1-26.3 2.8-3.7-3.2 4.1-0.4 0.5 2.3-3 4.7-5.8 7.2-8.7 3.6-4.1 7.3-8.1 11.1-11.9 3.5-3.5 7.2-7 11-10.3 1.9-1.7 3.8-3.3 5.7-4.9 1-0.8 1.9-1.6 2.9-2.4 0.7-0.5 1.3-1 2-1.6-2.8 2.2-3.3 2.5-1.5 1.2 8.4-6.3 17.2-12 26.3-17.1 4.4-2.5 8.9-4.8 13.5-7 2.3-1.1 4.6-2.1 6.9-3.2 4.3-1.9-4.9 2-0.6 0.2 1.6-0.6 3.1-1.3 4.7-1.9 10-3.9 20.3-6.9 30.7-9.4 5.1-1.2 10.2-2.2 15.3-3l3.9-0.6c4.8-0.7-5.4 0.7-0.6 0.1 3.1-0.4 6.1-0.7 9.2-0.9 11.1-0.9 22.3-1 33.5-0.3 2.7 0.2 5.3 0.4 7.9 0.6 1.8 0.2 10.9 1.3 3.3 0.3 5.6 0.8 11.2 1.8 16.7 2.9 10.5 2.2 20.8 5.2 30.9 8.9 2.4 0.9 4.8 1.8 7.1 2.7 1.3 0.5 5.6 2.4-0.6-0.3 1.2 0.5 2.3 1 3.5 1.5 5 2.2 9.9 4.7 14.7 7.3 9.2 4.9 18.1 10.6 26.6 16.7 1 0.7 2 1.5 3 2.2 3.7 2.8-4.1-3.2-0.5-0.4 2 1.5 3.9 3.1 5.8 4.7 4.2 3.5 8.2 7.1 12.1 10.9 7.5 7.2 14.5 15 21 23.2 2.9 3.6-3.2-4.2-0.4-0.5 0.8 1 1.5 2 2.2 3 1.5 2 2.9 4.1 4.3 6.2 3.1 4.5 6 9.1 8.7 13.8 2.6 4.4 4.9 8.8 7.2 13.3 1.7 3.4 3.3 6.8 4.8 10.3 0.9 2.1 0.7 1.5-0.7-1.7 0.3 0.8 0.6 1.6 1 2.3 4 9.9 7.3 20.1 9.9 30.4 1.3 5 2.3 10.1 3.2 15.2 0.5 2.6 0.9 5.2 1.3 7.7 0.7 4.8-0.7-5.4-0.1-0.6 0.2 1.7 0.4 3.5 0.6 5.2 0.8 7.8 1.1 15.7 1.1 23.5v85.2c0 12 10 22 22 22s22-10 22-22v-71.2c0-11.2 0.1-22.4-0.7-33.6-1.8-23.1-6.5-46-14.5-67.7C718.8 163.3 641.8 98.2 551.1 85c-25.3-3.7-50.1-3.8-75.4-0.4-23 3.1-44.7 9.8-66 18.9-41.4 17.6-76.5 47.5-103 83.5-27.3 36.9-42.7 81.3-47 126.7-1.1 11.6-1 23.2-1 34.8V421c0 12 10 22 22 22 12.1 0.1 22.1-9.9 22.1-21.9z m0 0" p-id="13386" fill="#F5F5E9"></path><path d="M320.3 421.1V350c0-15 0.8-29.6 1.9-44.6 0.6-8.7-7.1-16.1-15.2-17.2-7.7-1-18 3.9-19.2 12.5-0.2 1.2-0.3 2.4-0.5 3.6-1.2 9 2.2 19.2 12.2 21.5 8.3 1.9 20.1-2.5 21.5-12.2 2.8-19.8 8.6-38.2 15.5-56.8 3-8.2-2.7-17.5-10.1-20.6-7.4-3.1-18.1-0.7-21.9 7.2l-1.2 2.7c-3.6 8.4-2.8 19.2 6.3 23.9 7.6 4 20 2.7 23.9-6.3 4.1-9.3 8.6-18.4 13.8-27.1 4.5-7.5 9.8-14.5 14.7-21.7 4.9-7.2 2-17.6-4.5-22.6-6.4-5-17.3-5.3-23 1.4-1.6 1.9-3.2 4-4.7 6-5 7.1-1.9 17.6 4.5 22.6s17.3 5.3 23-1.4c12.5-14.8 25.3-28.6 40.6-40.6 6.8-5.4 6.1-16.8 1.4-23-4.8-6.2-15.6-9.8-22.6-4.5-2 1.6-4.1 3-6.1 4.7-6.6 5.7-6.4 16.5-1.4 23 4.8 6.3 15.6 9.8 22.6 4.5 15.4-11.5 31.7-20.1 48.9-28.6 7.8-3.9 10.3-14.4 7.2-21.9-3.1-7.5-12.4-13.1-20.6-10.1-2.4 0.9-4.8 1.9-7.1 3-7.8 3.8-10.3 14.4-7.2 21.9 3.2 7.5 12.4 13.1 20.6 10.1 9.1-3.3 18.1-6.8 27.4-9.4 9.8-2.7 19.7-4.4 29.7-6.1 8.6-1.5 13.6-11.3 12.5-19.2-1.1-8.2-8.5-15.7-17.2-15.2-2.6 0.1-5.4 0.4-7.9 1.1-8.5 2.2-13.7 10.8-12.5 19.2 1.1 8 8.5 15.9 17.2 15.2 11.1-0.9 22-2 33.2-1.8 8.4 0.1 16.7 1.2 25.1 1.8 8.7 0.6 16.1-7.1 17.2-15.2 1.1-7.9-3.9-17.7-12.5-19.2-1-0.2-2-0.3-3-0.4-9-1.2-19.2 2.2-21.5 12.2-1.9 8.2 2.5 20.2 12.2 21.5 11.2 1.6 22.3 3.9 33.2 7.1 5.1 1.5 10.2 3.2 15.3 5 2.2 0.8 4.4 1.7 6.7 2.6 3.1 1.2-2.9-1.2-1.9-0.8 5.9-10.1 11.8-20.1 17.7-30.2-1.1-0.5-2.2-0.9-3.2-1.4-8.4-3.6-19.1-2.8-23.9 6.3-4 7.5-2.7 20.1 6.3 23.9 9.3 4 18.4 8.6 27.1 13.8 7.6 4.5 14.5 9.8 21.8 14.7 7.2 4.9 17.6 2 22.6-4.5s5.3-17.3-1.4-23c-1.9-1.7-4-3.2-6-4.7-7.2-5-17.6-1.9-22.6 4.5s-5.3 17.3 1.4 23c7.3 6.2 14.7 12.2 21.5 19 6.9 6.8 12.8 14.3 19.1 21.6 5.7 6.6 16.6 6.3 23 1.4 6.4-4.9 9.6-15.4 4.5-22.6-1.5-2.1-3-4.1-4.7-6-5.7-6.6-16.5-6.3-23-1.4-6.5 5-9.5 15.3-4.5 22.6 10.8 15.8 20.9 31.3 28.6 48.9 3.5 8 14.7 10.2 21.9 7.2 7.5-3.2 13.1-12.4 10.1-20.6-0.9-2.4-2-4.8-3-7.2-3.4-8-14.7-10.2-21.9-7.2-7.2 3-13.5 12.6-10.1 20.6 7.7 18.5 12.1 37.4 15.5 57.1 1.5 8.6 11.3 13.6 19.2 12.5 8.2-1.1 15.7-8.5 15.2-17.2-0.1-2.6-0.4-5.4-1.1-7.9-2.1-8.5-10.8-13.7-19.2-12.5-8 1.1-15.9 8.5-15.2 17.2 2.4 29.4 1.8 58.8 1.8 88.4 0 9.4-0.4 18.9 0 28.3 0.9 16.5 11.5 30.4 26.9 36 14.6 5.2 32.1 0.4 42.1-11.4 6.7-7.9 9.8-17.3 9.9-27.7V359c0-19.3 0.2-38.5-2.3-57.7-3.9-30-12.3-58.6-25.6-85.7-21.7-44.1-56-81.9-97.1-108.5-44.2-28.8-96.6-43.3-149.3-42.6-60.6 0.8-119.2 21.9-166.4 59.9-44.1 35.5-76.5 84.6-91.2 139.2-7.5 27.9-9.8 56.3-9.8 85.1v32.7c0 12.8-0.1 25.6 0 38.4 0.2 29.1 29.1 49.2 56.2 37 13.8-6.4 22.1-20.6 22.6-35.7 0.3-9.2-8.3-17.9-17.5-17.5-9.7 0.4-17.2 7.7-17.5 17.5-0.1 4.2 1.5-3.2-0.1 0.7-1.6 4.1 2.2-2.9-0.2 0.7-0.7 1-3.1 3.5-0.3 0.7-0.6 0.6-1.3 1.2-1.8 1.8 2.7-2.8 0.3-0.4-0.7 0.3l-1.2 0.6c2.2-0.9 2.3-1 0.5-0.4-3.1-0.2 0 0 0.7 0-0.9 0.1-1.8 0.1-2.7 0 2.4 0.4 2.6 0.4 0.7 0-4.1-1.6 2.9 2.2-0.7-0.2-0.2-0.2-3.4-2.6-1.5-0.8 2 1.9-1-1.2-1.1-1.3 2.8 2.7 0.4 0.3-0.3-0.7l-0.6-1.2c0.9 2.2 1 2.3 0.4 0.5 0.2-3.1 0 0.1 0 0.7v-2c-0.1-10.7 0-21.5 0-32.2v-37c0-7.4-0.1-14.8 0.1-22.2 0.2-6.9 0.6-13.7 1.4-20.6 0-0.3 0.7-5.9 0.2-2.1 0.2-1.1 0.3-2.3 0.5-3.4 0.6-4 1.3-7.9 2-11.8 2.4-12.3 5.7-24.4 9.8-36.3 1.1-3.2 2.3-6.4 3.6-9.6-0.1 0.4 2-4.8 1.1-2.7-0.9 2.2 1.3-3 1.1-2.6 2.8-6.2 5.8-12.4 9.1-18.4 3-5.5 6.3-10.9 9.7-16.1 1.6-2.4 3.2-4.7 4.9-7.1 1-1.4 2-2.7 3-4.1 0.6-0.9 1.3-1.7 2-2.6-1.1 1.4-1 1.3 0.3-0.3 7.5-9.2 15.3-18.1 23.9-26.4 4.2-4.1 8.6-8.1 13.2-12 2.5-2.1 5-4.1 7.5-6.1-0.6 0.4-2.4 1.8 0.3-0.2 1.7-1.3 3.5-2.6 5.2-3.8 10.1-7.2 20.7-13.6 31.8-19.1 2.4-1.2 4.9-2.4 7.3-3.5 1.5-0.7 3-1.3 4.5-2-2.4 1 1.2-0.5 1.7-0.7 6.4-2.6 13-5 19.6-7.1 6.3-2 12.7-3.8 19.1-5.4 3.5-0.8 7.1-1.6 10.6-2.2l7.2-1.2c2.1-0.3 2.4-0.4 0.9-0.1 14.7-2 29.6-2.6 44.4-2.1 6.8 0.3 13.5 0.8 20.3 1.5 0.5 0.1 4.6 0.6 2.1 0.2 1.6 0.2 3.2 0.5 4.8 0.7l8.7 1.5c10.9 2.2 21.7 5.1 32.3 8.7 2.3 0.8 4.5 1.6 6.8 2.5 1.4 0.5 2.7 1 4 1.6 0.6 0.2 5 2.1 1.2 0.4 5.3 2.3 10.5 4.7 15.7 7.4 9.4 4.8 18.5 10.2 27.2 16.2 2.4 1.6 4.7 3.3 7 5 0.8 0.6 1.5 1.1 2.3 1.7 3.9 2.8-2.7-2.2 1 0.8 4.5 3.6 8.9 7.3 13.2 11.1 8.2 7.4 15.9 15.3 23.1 23.7 1.6 1.8 3.1 3.7 4.6 5.5 0.9 1.1 1.8 2.3 2.7 3.4-2.2-2.7-0.5-0.7-0.1-0.1 3.5 4.6 6.8 9.3 10 14.2 6.1 9.3 11.6 19 16.5 29 1.1 2.2 2.1 4.4 3.1 6.6 0.6 1.3 1.2 2.7 1.8 4-1.7-3.8 0.3 0.6 0.5 1.2 2.4 6 4.6 12.2 6.5 18.4 1.9 6.3 3.6 12.6 5.1 19 0.8 3.7 1.6 7.3 2.2 11 0.3 1.8 0.6 3.7 0.9 5.6 0.1 0.5 0.8 5.6 0.4 2.8 1.9 14.9 2.1 29.8 2.1 44.7V421c0 0.1-0.1 3 0.1 0.4 0.3-3.1-2.1 4.8 0.3-0.1-0.6 1.2-1.2 2.3-2 3.4 2.3-3.5 0-0.4-0.7 0.3 0.5-0.5 3-1.8 0.4-0.4-1.3 0.7-4.3 1.2-0.6 0.4-1.5 0.3-4.6 0.2-0.6 0.4h-2.7c4.1 0 0.7-0.1-0.6-0.4 2.1 1 2.3 1.1 0.6 0.2-0.8-0.4-1.5-0.9-2.2-1.4 3.2 2.1 0.8 0.7 0.1-0.3-1.5-2.1 1.8 3.7-0.1-0.1-0.6-1.3-1.2-4.3-0.4-0.6-0.3-1.3-0.4-4.8-0.4-0.6V336c0-10.2-1-20.2-1.8-30.3-11.5 1.6-22.9 3.1-34.4 4.7 1 4-0.3-3.3-0.2-1.4 11.5-1.6 22.9-3.1 34.4-4.7-3.4-19.7-7.9-38.6-15.5-57.1-10.7 4.5-21.3 9-32 13.5 1.6 3.8-0.4-1-0.5-1.2 10.7-4.5 21.3-9 32-13.5-7.7-17.6-17.7-33.1-28.6-48.9-9.2 7.1-18.3 14.1-27.5 21.2 2.5 2.9-2.6-3.5-0.8-1.1 9.2-7.1 18.3-14.1 27.5-21.2-6.3-7.3-12.3-14.8-19.1-21.6-6.8-6.8-14.2-12.8-21.5-19-7.1 9.2-14.1 18.3-21.2 27.5 3.2 2.2-3.3-2.8-1.1-0.8 7.1-9.2 14.1-18.3 21.2-27.5-7.3-4.9-14.2-10.2-21.8-14.7-8.7-5.2-17.8-9.8-27.1-13.8-5.9 10.1-11.8 20.1-17.7 30.2 1.1 0.5 2.2 0.9 3.2 1.4 8.4 3.6 19.1 2.8 23.9-6.3 4-7.5 2.7-20.1-6.3-23.9-19.7-8.5-40.3-14.5-61.6-17.4-3.1 11.2-6.2 22.5-9.3 33.7 1 0.1 2 0.2 3 0.4 1.6-11.5 3.1-22.9 4.7-34.4-8.4-0.6-16.6-1.6-25.1-1.8-11.2-0.2-22.1 0.9-33.2 1.8 1.6 11.5 3.1 22.9 4.7 34.4 4-1-3.3 0.3-1.4 0.2-1.6-11.5-3.1-22.9-4.7-34.4-10 1.8-19.9 3.4-29.7 6.1-9.4 2.6-18.3 6.1-27.4 9.4 4.5 10.7 9 21.3 13.5 32 3.5-1.7-4.1 1.6-1.2 0.5-4.5-10.7-9-21.3-13.5-32-17.2 8.5-33.5 17-48.9 28.6 7.1 9.2 14.1 18.3 21.2 27.5-0.2 0.1-4.3 3.3-1 0.8-7.1-9.2-14.1-18.3-21.2-27.5-15.3 12-28.1 25.8-40.6 40.6 9.2 7.1 18.3 14.1 27.5 21.2 2.2-3.2-2.8 3.4-0.8 1.1-9.2-7.1-18.3-14.1-27.5-21.2-4.9 7.3-10.2 14.2-14.7 21.7-5.2 8.7-9.8 17.8-13.8 27.1 10.1 5.9 20.1 11.8 30.2 17.7 0.4-0.9 0.7-1.8 1.2-2.7-10.7-4.5-21.3-9-32-13.5-6.9 18.7-12.6 37-15.5 56.8 11.2 3.1 22.5 6.2 33.7 9.3 0.2-1.2 0.3-2.4 0.5-3.6-11.5-1.6-22.9-3.1-34.4-4.7-1 13.9-1.9 27.6-1.9 41.5V421c0 9.2 8 17.9 17.5 17.5 9.2-0.3 17.3-7.6 17.3-17.4z m0 0" p-id="13387" fill="#F5F5E9"></path><path d="M836.8 397c-1.5-0.3-3-0.5-4.6-0.5H193.3c-12.5 0-23 10.5-23 23v424.2c0 3.9 0 7.8 0.2 11.8 1.5 26.9 13 52.3 32 71.3 19.3 19.3 45.2 29.7 72.1 31.7 3.8 0.3 7.6 0.2 11.4 0.2h459.3c26.8 0 51.4-9.9 72-26.6 26.1-21.2 38-54 38-86.8V419.5c-0.2-11-8.1-20.4-18.5-22.5zM506.1 856.2c-22 0-39.8-17.5-39.8-39s17.8-39 39.8-39c22 0 39.8 17.5 39.8 39s-17.8 39-39.8 39zM613 635.5c-7.8 12.3-24.4 29-49.8 50.1-13.2 10.9-21.3 19.7-24.5 26.4-3.2 6.6-4.7 18.5-4.3 35.7h-56.7c-0.1-8.1-0.2-13.1-0.2-14.9 0-18.4 3-33.4 9.1-45.3 6.1-11.8 18.2-25.2 36.4-39.9 18.2-14.8 29.1-24.5 32.6-29.1 5.5-7.3 8.2-15.3 8.2-23.9 0-12.1-4.9-22.4-14.6-31.1-9.7-8.6-22.8-13-39.3-13-15.9 0-29.1 4.5-39.8 13.5-10.7 9-19.8 28.8-22 41.1-2 11.6-57.9 16.5-57.2-7 0.7-23.5 12.9-49 33.9-67.5s48.5-27.7 82.5-27.7c35.8 0 64.3 9.4 85.5 28.1 21.2 18.7 31.8 40.5 31.8 65.4 0 13.8-3.9 26.8-11.6 39.1z" p-id="13388" fill="#F5F5E9"></path></svg>