<?xml version="1.0" standalone="no"?><!DOCTYPE svg PUBLIC "-//W3C//DTD SVG 1.1//EN" "http://www.w3.org/Graphics/SVG/1.1/DTD/svg11.dtd"><svg t="1572427811171" class="icon" viewBox="0 0 1029 1024" version="1.1" xmlns="http://www.w3.org/2000/svg" p-id="15515" xmlns:xlink="http://www.w3.org/1999/xlink" width="42.205078125" height="42"><defs><style type="text/css"></style></defs><path d="M778.756 975.249a224.912 224.912 0 0 1-89.215-17.993 229.77 229.77 0 0 1-122.892-122.862 228.52 228.52 0 0 1 49.38-251.382 235.908 235.908 0 0 1 73.512-48.82 230.61 230.61 0 0 1 178.44 0 225.782 225.782 0 0 1 121.762 121.772 230.53 230.53 0 0 1 0 178.43 235.908 235.908 0 0 1-48.82 73.511 227.381 227.381 0 0 1-162.167 67.344z m113.346-267.096h-83.048v-77.45a38.845 38.845 0 0 0-10.096-26.939q-10.106-11.215-25.82-11.225t-24.68 11.225q-8.997 11.226-8.997 26.94v77.44H666.49a38.315 38.315 0 0 0-38.115 38.194q0 15.714 11.225 23.571t26.93 7.857H739.5v79.68q0 15.713 8.997 26.939t24.68 11.225q15.714 0 25.82-11.225a38.875 38.875 0 0 0 10.096-26.94v-79.719h83.048v2.25q15.713 0 26.939-8.997t11.176-24.64a38.325 38.325 0 0 0-38.155-38.156zM614.91 428.703q-4.488 17.993-8.997 32.547a209.738 209.738 0 0 1-11.225 25.25q-6.718 12.935-14.565 19.642-10.106 7.857-13.994 16.834a155.03 155.03 0 0 0-6.728 18.512q-2.808 9.537-6.167 19.633a68.543 68.543 0 0 1-11.226 20.202q-25.86 33.667-38.765 65.055a290.137 290.137 0 0 0-17.993 60.606 231.69 231.69 0 0 0-2.808 57.797 337.318 337.318 0 0 0 8.996 55.549 260.228 260.228 0 0 0 13.465 42.083q8.996 21.882 26.37 44.893t44.352 44.952q26.93 21.881 67.334 42.084-26.94 5.607-62.846 10.096-30.298 3.368-74.63 6.167t-101.57 2.81q-29.18 0-67.894-2.24t-79.68-5.608q-40.983-3.368-80.798-7.857t-72.971-9.536q-33.097-5.048-56.108-10.666t-28.619-10.096q-10.106-8.996-15.714-49.98t3.399-107.119q5.608-36.985 29.738-56.677t56.698-30.908q32.537-11.216 67.894-20.762t62.285-26.37q21.322-13.465 32.548-25.25t15.713-24.13a74.89 74.89 0 0 0 4.489-25.82q0-13.465-1.12-29.18-2.25-23.56-16.274-36.985t-29.738-26.93q-8.996-6.737-15.714-20.201a247.493 247.493 0 0 1-11.225-25.81 186.637 186.637 0 0 1-8.997-32.547 51.61 51.61 0 0 1-14.584-6.738q-5.618-4.538-12.355-13.535t-12.346-26.909q-5.617-16.833-3.928-31.418t6.178-24.69a66.454 66.454 0 0 1 12.335-21.322 652.685 652.685 0 0 1 4.488-76.32 618.758 618.758 0 0 1 13.994-69.573 192.145 192.145 0 0 1 30.868-66.214q20.193-28.059 43.204-45.982a201.511 201.511 0 0 1 47.69-28.059 222.263 222.263 0 0 1 49.382-13.995A300.103 300.103 0 0 1 403.882 0.06a230.63 230.63 0 0 1 56.108 6.737 254.02 254.02 0 0 1 49.98 17.993 229.98 229.98 0 0 1 40.985 25.25q17.993 13.995 29.178 28.62a213.287 213.287 0 0 1 37.626 71.721 581.663 581.663 0 0 1 17.393 74.071 487.7 487.7 0 0 1 4.488 80.809 48.85 48.85 0 0 1 11.216 13.464q4.488 6.738 6.737 17.993t0 28.06q-2.239 21.321-8.996 33.666t-14.605 19.023a55.728 55.728 0 0 1-19.082 11.226z m0 0" p-id="15516" fill="#F5F5E9"></path></svg>