<?xml version="1.0" standalone="no"?><!DOCTYPE svg PUBLIC "-//W3C//DTD SVG 1.1//EN" "http://www.w3.org/Graphics/SVG/1.1/DTD/svg11.dtd"><svg t="1572591467990" class="icon" viewBox="0 0 1024 1024" version="1.1" xmlns="http://www.w3.org/2000/svg" p-id="4571" xmlns:xlink="http://www.w3.org/1999/xlink" width="42" height="42"><defs><style type="text/css"></style></defs><path d="M463.573 36.48c301.014-29.547 552 220.373 524.16 521.067-20.373 220.266-194.986 400.746-414.613 428.48-111.68 14.08-216.427-11.2-303.787-62.827L135.36 969.387c-14.187 4.906-28.373-7.467-25.493-22.187l27.093-139.733C61.867 712.32 21.653 588.16 37.547 454.187 63.68 234.24 243.093 58.24 463.573 36.48z m0.64 427.733c-26.346 0-47.786 21.44-47.786 47.787 0 26.347 21.44 47.787 47.786 47.787h286.72c26.347 0 47.787-21.44 47.787-47.787 0-26.347-21.44-47.787-47.787-47.787h-286.72z m-191.146 95.574c26.346 0 47.786-21.44 47.786-47.787 0-26.347-21.44-47.787-47.786-47.787-26.347 0-47.787 21.44-47.787 47.787 0 26.347 21.44 47.787 47.787 47.787z" p-id="4572" fill="#F5F5E9"></path></svg>