<?xml version="1.0" standalone="no"?><!DOCTYPE svg PUBLIC "-//W3C//DTD SVG 1.1//EN" "http://www.w3.org/Graphics/SVG/1.1/DTD/svg11.dtd"><svg t="1572424526610" class="icon" viewBox="0 0 1024 1024" version="1.1" xmlns="http://www.w3.org/2000/svg" p-id="6809" xmlns:xlink="http://www.w3.org/1999/xlink" width="42" height="42"><defs><style type="text/css"></style></defs><path d="M511.5 0.6C229.7 0.6 1.4 229 1.4 510.8c0 281.7 228.4 510.1 510.1 510.1 49.3 0 92.5-33 105.5-80.5s-7.5-97.9-49.9-122.9c-0.6-0.4-1.2-0.7-1.9-1.1-46.4-27.5-65.8-84.6-45.8-134.7 20-50 73.5-78.1 126-66l3.5 0.9c35.2 8.6 75.2 13.4 117.7 13.4 140.9 0 255.1-53.4 255.1-119.2C1021.6 229 793.2 0.6 511.5 0.6zM289.3 418.7c-13.5 32.7-45.4 54-80.8 54s-67.2-21.3-80.8-53.9c-13.5-32.7-6.1-70.3 18.9-95.3s62.6-32.5 95.3-19c44.6 18.5 65.8 69.6 47.4 114.2z m130.1-130.1c-32.7 13.5-70.3 6.1-95.3-18.9s-32.5-62.6-19-95.3c13.5-32.7 45.4-54 80.8-54s67.2 21.3 80.8 54c18.5 44.6-2.7 95.7-47.3 114.2z m298.3-47.4c-13.5 32.7-45.4 54-80.8 54s-67.2-21.3-80.8-54c-13.5-32.7-6-70.3 19-95.3s62.6-32.5 95.3-18.9c21.4 8.9 38.4 25.9 47.3 47.3 8.9 21.5 8.9 45.5 0 66.9z m180.9 167.6c-11.5 41.1-51 67.9-93.5 63.4-42.5-4.5-75.4-39.1-78-81.7-2.6-42.6 26-80.9 67.6-90.5 41.6-9.6 84.1 12.3 100.4 51.7 7.6 18.2 8.8 38.3 3.5 57.1z m0 0" p-id="6810" fill="#F5F5E9"></path></svg>