<?xml version="1.0" standalone="no"?><!DOCTYPE svg PUBLIC "-//W3C//DTD SVG 1.1//EN" "http://www.w3.org/Graphics/SVG/1.1/DTD/svg11.dtd"><svg t="1571709208237" class="icon" viewBox="0 0 1024 1024" version="1.1" xmlns="http://www.w3.org/2000/svg" p-id="5742" width="30" height="30" xmlns:xlink="http://www.w3.org/1999/xlink"><defs><style type="text/css"></style></defs><path d="M959.795 607.232c0 59.7-23.245 115.814-65.433 158.003-41.984 41.984-97.792 65.229-157.184 65.434H286.925c-59.392-0.205-115.2-23.45-157.184-65.434-42.189-42.189-65.434-98.304-65.434-158.003s23.245-115.814 65.434-158.003c36.454-36.455 83.251-58.778 133.837-64.205 11.161-44.237 34.099-84.787 67.174-117.862 48.333-48.333 112.538-74.855 180.838-74.855 83.252 0 161.485 40.653 209.408 108.851 10.138 14.439 6.656 34.407-7.782 44.544-14.438 10.138-34.406 6.656-44.544-7.782-35.942-51.098-94.618-81.613-156.98-81.613-84.684 0-156.671 55.194-182.066 131.38-3.277 9.727-5.735 25.804-7.373 39.321-1.536 12.493-12.39 21.709-24.883 20.992a147.107 147.107 0 0 0-9.421-0.307c-10.957 0-21.607 1.126-31.949 3.174-73.728 15.155-129.024 80.794-127.693 158.925 1.434 86.323 74.752 156.877 161.075 156.877H734.72c86.938 0 159.027-68.915 160.973-155.75 2.048-89.6-70.247-163.226-159.437-163.226-87.757 0-159.232 71.27-159.437 159.027 0 16.077-13.21 30.925-29.184 32.256-18.944 1.638-34.816-13.312-34.816-31.846 0-59.7 23.245-115.815 65.434-158.004 42.189-42.188 98.304-65.433 158.003-65.433s115.814 23.245 158.003 65.433c42.189 42.292 65.536 98.407 65.536 158.106z" p-id="5743" fill="#F5F5E9"></path></svg>
