<?xml version="1.0" standalone="no"?><!DOCTYPE svg PUBLIC "-//W3C//DTD SVG 1.1//EN" "http://www.w3.org/Graphics/SVG/1.1/DTD/svg11.dtd"><svg t="1571708829780" class="icon" viewBox="0 0 1024 1024" version="1.1" xmlns="http://www.w3.org/2000/svg" p-id="3330" width="32" height="32" xmlns:xlink="http://www.w3.org/1999/xlink"><defs><style type="text/css"></style></defs><path d="M363.484 323.647c0-64.188-52.083-116.271-116.177-116.271-64.189 0-116.272 52.083-116.272 116.178 0 64.189 52.083 116.272 116.178 116.272 64.189-0.001 116.271-51.991 116.271-116.179M523.58 668.614c-64.188 0-116.271 51.988-116.271 116.177v0.094c0 64.189 52.083 116.271 116.271 116.271s116.271-52.082 116.271-116.271c-0.092-64.282-52.082-116.271-116.271-116.271M792.065 207.188c-64.188 0-116.271 51.989-116.271 116.178v0.094c0 64.188 52.083 116.271 116.271 116.271s116.271-51.988 116.271-116.177c-0.093-64.189-52.082-116.272-116.271-116.366M387.227 677.717c-33.597-18.112-58.371-41.291-82.77-77.327-25.712-38.1-40.634-65.879-40.634-94.97 0-15.389-12.482-27.776-27.777-27.776-15.391 0-27.778 12.481-27.778 27.776 0 47.768 24.774 88.494 50.112 126.031 29.374 43.45 60.998 72.917 102.478 95.251 6.475 3.474 14.077 4.318 21.208 2.159s13.044-7.038 16.422-13.421c7.32-13.606 2.252-30.403-11.261-37.723M817.31 482.241c-15.202-2.346-29.373 8.071-31.719 23.086-5.162 32.939-12.575 59.215-35.191 96.189-23.836 38.757-40.915 59.685-78.922 80.423-11.168 6.1-16.704 18.956-13.607 31.251 3.096 12.386 14.265 20.926 26.934 20.926 4.692 0 9.196-1.126 13.325-3.378 48.329-26.463 72.259-55.555 99.661-100.13 27.401-44.575 36.88-78.924 42.793-116.741 2.251-15.014-8.072-29.28-23.274-31.626M664.345 240.314c3.379-6.476 4.036-14.171 1.877-21.209-2.251-7.038-7.133-12.95-13.607-16.329-51.8-27.121-114.863-35.003-142.36-33.595-30.217 1.501-78.921 12.48-124.623 38.757-13.232 7.695-17.736 24.587-10.136 37.818 7.601 13.232 24.493 17.924 37.82 10.323 34.909-20.083 75.261-30.311 99.754-31.531 22.615-1.032 74.512 6.85 113.832 27.402 13.701 7.227 30.405 1.971 37.443-11.636" p-id="3331" fill="#F5F5E9"></path></svg>
