<?xml version="1.0" standalone="no"?><!DOCTYPE svg PUBLIC "-//W3C//DTD SVG 1.1//EN" "http://www.w3.org/Graphics/SVG/1.1/DTD/svg11.dtd"><svg t="1571709842799" class="icon" viewBox="0 0 1024 1024" version="1.1" xmlns="http://www.w3.org/2000/svg" p-id="7216" width="28" height="28" xmlns:xlink="http://www.w3.org/1999/xlink"><defs><style type="text/css"></style></defs><path d="M785.066667 170.666667v498.346666H68.266667v98.986667h129.706666c-10.24 13.653333-13.653333 27.306667-13.653333 44.373333 0 40.96 34.133333 75.093333 75.093333 75.093334 40.96 0 75.093333-34.133333 75.093334-75.093334 0-17.066667-3.413333-30.72-13.653334-44.373333h283.306667c-10.24 13.653333-13.653333 27.306667-13.653333 44.373333 0 40.96 34.133333 75.093333 75.093333 75.093334 40.96 0 75.093333-34.133333 75.093333-75.093334 0-17.066667-3.413333-30.72-13.653333-44.373333h122.88V238.933333H955.733333V170.666667h-170.666666z m-68.266667 389.12V303.786667c0-40.96-17.066667-64.853333-58.026667-64.853334h-85.333333v389.12h85.333333c40.96 0 58.026667-27.306667 58.026667-68.266666zM392.533333 170.666667h71.68c37.546667 0 64.853333 30.72 64.853334 68.266666h37.546666c0-51.2-37.546667-102.4-88.746666-102.4h-95.573334C331.093333 136.533333 290.133333 187.733333 290.133333 238.933333h37.546667c0-37.546667 27.306667-68.266667 64.853333-68.266666z m-47.786666 457.386666h170.666666V238.933333h-170.666666v389.12z m-136.533334 0h78.506667V235.52H208.213333c-40.96 0-71.68 27.306667-71.68 68.266667v256c0 40.96 30.72 68.266667 71.68 68.266666z" fill="#F5F5E9" p-id="7217"></path></svg>